<svg width="344" height="139" viewBox="0 0 344 139" fill="none" xmlns="http://www.w3.org/2000/svg">
<rect width="344" height="139" fill="white"/>
<path d="M68.7715 48.4078C77.8612 48.1729 86.7865 43.7103 100.996 29.4299C107.643 22.501 115.794 14.0925 126.833 2.53665C126.175 1.6911 125.447 0.869038 124.719 0L123.497 1.26833C94.4199 30.5338 82.2064 37.7914 68.795 38.3786C55.5011 37.7914 43.1702 30.5338 14.0926 1.33879L12.8008 0C12.0727 0.845551 11.3681 1.6911 10.6165 2.51316C21.726 13.9751 29.8762 22.4306 36.4527 29.3829C50.6862 43.7338 59.6114 48.1729 68.6776 48.3138" fill="#70B62C"/>
<path d="M68.8183 89.2526C59.7521 89.4874 50.8269 93.8326 36.6169 108.207C29.9699 115.136 21.8198 123.615 10.7806 135.124C11.5088 135.946 12.2369 136.768 12.965 137.637L14.0924 136.345C43.2404 107.08 55.5713 99.8454 68.9122 99.2348C82.2062 99.8219 94.5371 107.174 123.591 136.228C123.99 136.627 124.39 137.05 124.813 137.449C125.517 136.603 126.245 135.758 126.973 134.936C115.887 123.544 107.737 115.089 100.996 108.16C86.9037 93.7857 77.8845 89.4405 68.8183 89.2526Z" fill="#7C7B7B"/>
<path d="M136.345 123.497C107.173 94.4433 99.8453 82.2063 99.2346 68.8419C99.8218 55.5245 107.056 43.1935 136.227 14.0925L137.472 12.8946C136.603 12.1665 135.758 11.4619 134.936 10.7103C123.474 21.8199 115.018 29.9701 108.089 36.5466C93.7151 50.8035 89.2994 59.7287 89.135 68.7949C89.3934 77.8611 93.8325 86.7864 108.113 100.996C115.159 107.643 123.544 115.793 135.03 126.833C135.852 126.081 136.697 125.376 137.543 124.648L136.298 123.45" fill="#7C7B7B"/>
<path d="M48.3843 68.8419C48.1494 59.7757 43.6868 50.8505 29.4299 36.617C22.501 29.9701 14.0925 21.8199 2.53665 10.7103L0 12.8946L1.24484 14.0925C30.5338 43.1935 37.7914 55.5245 38.3786 68.8419C37.7914 82.2063 30.5338 94.4668 1.3153 123.615L0 124.813L2.51316 126.997C14.0925 115.887 22.5245 107.737 29.4768 100.996C43.8277 86.7629 48.2668 77.8376 48.3843 68.7714" fill="#7C7B7B"/>
<path d="M180.854 52.8704L169.58 38.2847C168.523 36.8989 167.818 35.9359 167.231 34.879C167.231 35.7245 167.231 37.0398 167.231 38.2142V52.8704H162.698V27.9736H167.396L178.223 42.0661C179.082 43.1718 179.867 44.3331 180.572 45.5423C180.572 44.4384 180.572 43.0056 180.572 41.9017V28.0441H185.105V52.9409L180.854 52.8704Z" fill="#7C7B7B"/>
<path d="M201.335 52.8704L200.536 51.0853C199.052 52.4739 197.096 53.2463 195.064 53.2462C192.715 53.2462 189.004 52.0483 189.004 46.1999V34.9964H193.537V46.0355C193.537 48.2668 194.57 49.6526 196.755 49.6526C198.041 49.5975 199.262 49.0708 200.184 48.1729V34.9964H204.717V47.9145C204.599 49.5748 204.717 51.2436 205.069 52.8704H201.335Z" fill="#7C7B7B"/>
<path d="M219.608 30.2519C218.866 29.9319 218.067 29.7642 217.259 29.7587C215.827 29.7587 215.146 30.6277 215.146 32.1074V34.9259H219.843L218.669 38.4021H215.216V52.7999H210.683V38.4725H208.076V34.9964H210.683V32.5067C210.601 31.6534 210.707 30.7924 210.994 29.9847C211.282 29.1771 211.743 28.4424 212.346 27.8329C212.949 27.2234 213.678 26.7538 214.483 26.4575C215.287 26.1611 216.147 26.0453 217.001 26.1181C218.21 26.1378 219.402 26.4098 220.501 26.9167L219.608 30.2519Z" fill="#7C7B7B"/>
<path d="M233.842 30.2519C233.1 29.9319 232.301 29.7642 231.493 29.7587C230.06 29.7587 229.379 30.6277 229.379 32.1074V34.9259H234.077L232.902 38.4021H229.45V52.7999H224.916V38.4725H222.309V34.9964H224.916V32.5067C224.834 31.6534 224.94 30.7924 225.228 29.9847C225.515 29.1771 225.977 28.4424 226.58 27.8329C227.182 27.2234 227.912 26.7538 228.716 26.4575C229.521 26.1611 230.38 26.0453 231.235 26.1181C232.444 26.1378 233.636 26.4098 234.734 26.9167L233.842 30.2519Z" fill="#7C7B7B"/>
<path d="M239.385 32.2484C238.847 32.2299 238.326 32.0538 237.887 31.7419C237.448 31.43 237.11 30.996 236.916 30.4939C236.722 29.9918 236.679 29.4436 236.794 28.9175C236.908 28.3914 237.175 27.9105 237.56 27.5346C237.946 27.1586 238.433 26.9042 238.962 26.803C239.491 26.7017 240.038 26.758 240.535 26.9649C241.032 27.1718 241.457 27.5202 241.758 27.9667C242.059 28.4133 242.222 28.9384 242.227 29.4768C242.227 29.8468 242.153 30.2131 242.009 30.554C241.866 30.8949 241.655 31.2036 241.39 31.462C241.125 31.7203 240.811 31.9229 240.467 32.058C240.123 32.193 239.755 32.2578 239.385 32.2484V32.2484ZM237.036 52.8704V34.9964H241.569V52.8704H237.036Z" fill="#7C7B7B"/>
<path d="M249.461 45.1195C249.485 45.7491 249.635 46.3675 249.902 46.938C250.17 47.5084 250.549 48.0191 251.018 48.4399C251.487 48.8606 252.036 49.1827 252.632 49.3871C253.228 49.5914 253.859 49.6737 254.487 49.6291C256.138 49.6341 257.761 49.1961 259.185 48.3608L260.289 51.2733C258.37 52.5751 256.101 53.2632 253.783 53.2462C247.559 53.2462 244.904 48.7131 244.904 43.8512C244.904 38.9893 247.934 34.4562 253.031 34.4562C258.128 34.4562 261.04 38.1437 261.04 43.6868V45.0021L249.461 45.1195ZM252.867 38.0733C252.377 38.0973 251.897 38.218 251.454 38.4286C251.012 38.6392 250.615 38.9354 250.287 39.3001C249.96 39.6648 249.708 40.0908 249.546 40.5534C249.384 41.0161 249.315 41.5063 249.344 41.9957H256.39C256.445 41.4961 256.396 40.9904 256.245 40.5108C256.095 40.0312 255.846 39.5884 255.514 39.2105C255.183 38.8325 254.776 38.5279 254.32 38.3159C253.864 38.1039 253.369 37.9893 252.867 37.9793V38.0733Z" fill="#7C7B7B"/>
<path d="M268.486 53.2462C267.944 53.3232 267.392 53.2764 266.872 53.1094C266.351 52.9424 265.875 52.6595 265.479 52.2819C265.084 51.9044 264.779 51.442 264.587 50.9296C264.396 50.4173 264.324 49.8682 264.375 49.3238V26.1181H268.908V47.2569C268.908 48.5957 269.167 49.1124 270.13 49.1124C270.575 49.1099 271.017 49.0467 271.445 48.9245L272.009 52.2832C270.94 52.9083 269.724 53.2404 268.486 53.2462V53.2462Z" fill="#7C7B7B"/>
<path d="M283.612 53.2462C278.28 53.2462 273.888 50.1223 273.888 44.0626C273.886 42.7841 274.145 41.5187 274.649 40.3438C275.153 39.1689 275.892 38.1092 276.82 37.2297C277.748 36.3502 278.845 35.6693 280.045 35.2288C281.246 34.7882 282.523 34.5972 283.8 34.6676C284.586 34.6482 285.372 34.7032 286.148 34.832V26.1181H290.682V51.8134C288.476 52.8587 286.05 53.3504 283.612 53.2462V53.2462ZM285.961 38.4491C285.274 38.2484 284.561 38.1534 283.847 38.1672C283.098 38.1317 282.351 38.2557 281.654 38.5311C280.957 38.8064 280.327 39.2268 279.805 39.7643C279.283 40.3019 278.881 40.9442 278.626 41.6488C278.372 42.3534 278.27 43.1041 278.327 43.8512C278.28 44.6008 278.391 45.3519 278.655 46.0554C278.918 46.7588 279.327 47.3987 279.855 47.9332C280.382 48.4676 281.017 48.8845 281.717 49.1565C282.417 49.4285 283.167 49.5496 283.917 49.5117C284.606 49.5087 285.292 49.4219 285.961 49.2533V38.4491Z" fill="#7C7B7B"/>
<path d="M175.828 85.7529C172.023 79.3408 170.332 76.3579 169.369 76.1231H167.255V85.7529H162.698V60.8562H169.416C175.875 60.8562 178.294 64.1444 178.294 67.9024C178.336 69.3471 177.898 70.765 177.048 71.9339C176.198 73.1028 174.984 73.9566 173.596 74.3615V74.3615C174.724 74.9957 177.213 79.3174 181.042 85.659L175.828 85.7529ZM169.533 64.6142H167.184V72.1772H169.533C170.065 72.2324 170.602 72.177 171.111 72.0146C171.621 71.8521 172.091 71.586 172.492 71.2331C172.894 70.8801 173.218 70.4479 173.444 69.9637C173.671 69.4794 173.794 68.9535 173.808 68.4191C173.827 67.8768 173.724 67.3372 173.507 66.8396C173.291 66.3421 172.966 65.8992 172.556 65.5435C172.146 65.1878 171.662 64.9281 171.139 64.7836C170.616 64.6391 170.067 64.6133 169.533 64.7081V64.6142Z" fill="#7C7B7B"/>
<path d="M186.115 78.002C186.139 78.6295 186.288 79.2458 186.554 79.8146C186.82 80.3834 187.198 80.893 187.664 81.3134C188.131 81.7339 188.677 82.0565 189.27 82.2623C189.863 82.4681 190.492 82.5529 191.118 82.5116C192.769 82.5189 194.392 82.0807 195.816 81.2433L196.919 84.1557C195.002 85.4603 192.732 86.1486 190.413 86.1287C184.189 86.1287 181.535 81.5956 181.535 76.7337C181.535 71.8718 184.565 67.3387 189.662 67.3387C194.759 67.3387 197.671 71.0262 197.671 76.5693V77.8846L186.115 78.002ZM189.497 70.9557C189.009 70.9796 188.53 71.1005 188.088 71.3114C187.647 71.5223 187.252 71.8188 186.926 72.1839C186.6 72.549 186.35 72.9752 186.191 73.4378C186.032 73.9003 185.966 74.39 185.998 74.8782H193.044C193.093 74.378 193.038 73.8731 192.883 73.3951C192.728 72.917 192.476 72.4759 192.144 72.0992C191.811 71.7225 191.404 71.4183 190.949 71.2054C190.494 70.9925 190 70.8756 189.497 70.8618V70.9557Z" fill="#7C7B7B"/>
<path d="M206.22 86.1288C203.925 86.2211 201.649 85.6764 199.644 84.5551L201.124 81.2434C202.504 82.2114 204.136 82.758 205.821 82.817C207.677 82.817 208.875 82.1359 208.875 80.938C208.875 77.7202 200.654 78.9416 200.654 72.8583C200.654 69.758 203.003 67.5501 207.418 67.5501C209.19 67.5388 210.948 67.8491 212.609 68.4661V72.2476C211.021 71.5232 209.304 71.1239 207.559 71.0733C206.009 71.0733 205.023 71.5665 205.023 72.6234C205.023 75.4654 213.408 74.5024 213.408 80.6797C213.478 84.5551 210.096 86.1288 206.22 86.1288Z" fill="#7C7B7B"/>
<path d="M220.618 78.002C220.642 78.6316 220.792 79.25 221.059 79.8204C221.327 80.3908 221.706 80.9016 222.175 81.3224C222.644 81.7431 223.193 82.0652 223.789 82.2695C224.385 82.4738 225.016 82.5562 225.645 82.5116C227.296 82.5166 228.918 82.0786 230.342 81.2433L231.422 84.1557C229.514 85.4598 227.252 86.1483 224.94 86.1287C218.692 86.1287 216.062 81.5956 216.062 76.7337C216.062 71.8718 219.068 67.3387 224.188 67.3387C229.309 67.3387 232.198 71.0262 232.198 76.5693V77.8846L220.618 78.002ZM224.024 70.9557C223.533 70.9766 223.052 71.0953 222.607 71.3048C222.163 71.5143 221.765 71.8105 221.437 72.1758C221.109 72.5412 220.857 72.9685 220.696 73.4325C220.536 73.8966 220.469 74.3881 220.501 74.8782H227.547C227.603 74.3785 227.553 73.8728 227.403 73.3933C227.252 72.9137 227.003 72.4708 226.671 72.0929C226.34 71.715 225.933 71.4103 225.477 71.1984C225.022 70.9864 224.527 70.8718 224.024 70.8618V70.9557Z" fill="#7C7B7B"/>
<path d="M246.478 85.7529L245.726 84.1557C244.324 85.4567 242.472 86.1638 240.559 86.1287C239.791 86.168 239.022 86.0476 238.303 85.7751C237.583 85.5026 236.928 85.0838 236.379 84.5453C235.829 84.0068 235.397 83.3602 235.11 82.6463C234.823 81.9324 234.687 81.1668 234.711 80.3977C234.711 76.6867 237.6 74.6903 242.18 74.5259L245.35 74.4084V73.9622C245.35 71.7778 243.847 70.9558 241.851 70.9558C240.255 70.9719 238.695 71.427 237.341 72.2711L235.862 69.4291C237.946 68.0511 240.411 67.3612 242.908 67.4561C247.323 67.4561 249.954 69.2881 249.954 73.9622V81.0084C249.865 82.5829 249.983 84.1623 250.306 85.7059L246.478 85.7529ZM245.35 77.5088H242.79C240.324 77.5088 239.244 78.4248 239.244 79.8575C239.244 81.2903 240.254 82.3472 242.133 82.3472C243.309 82.3877 244.457 81.9853 245.35 81.2198V77.5088Z" fill="#7C7B7B"/>
<path d="M264.234 72.0832C263.604 71.7041 262.88 71.5088 262.144 71.5195C260.831 71.5703 259.591 72.1356 258.691 73.0932V85.7529H254.158V67.8789H257.963L258.48 69.7814C259.099 69.0868 259.849 68.5216 260.688 68.1185C261.526 67.7153 262.436 67.4823 263.365 67.4327C264.278 67.4262 265.17 67.6964 265.926 68.2078L264.234 72.0832Z" fill="#7C7B7B"/>
<path d="M275.109 86.1287C273.904 86.18 272.702 85.9737 271.584 85.5236C270.465 85.0736 269.455 84.39 268.621 83.5186C267.788 82.6472 267.15 81.608 266.75 80.4704C266.349 79.3328 266.197 78.1229 266.301 76.9216C266.26 75.6885 266.469 74.4598 266.918 73.3105C267.366 72.1611 268.044 71.115 268.91 70.2361C269.776 69.3571 270.812 68.6635 271.954 68.1977C273.096 67.7319 274.322 67.5036 275.555 67.5266C277.34 67.4562 279.108 67.8962 280.652 68.7949V72.4824C279.368 71.4961 277.784 70.9819 276.166 71.0262C275.436 71.0304 274.714 71.1851 274.047 71.4808C273.379 71.7764 272.78 72.2067 272.286 72.7445C271.792 73.2824 271.415 73.9164 271.177 74.6069C270.939 75.2973 270.847 76.0293 270.905 76.7572C270.822 77.4885 270.895 78.2291 271.119 78.93C271.344 79.6308 271.716 80.2759 272.209 80.8223C272.702 81.3687 273.305 81.804 273.98 82.0993C274.654 82.3946 275.383 82.5432 276.119 82.5351C277.618 82.5275 279.083 82.0959 280.347 81.2903L281.474 84.2732C279.575 85.4902 277.365 86.1344 275.109 86.1287V86.1287Z" fill="#7C7B7B"/>
<path d="M295.943 85.7529V75.3245C295.943 73.328 295.637 71.4255 293.218 71.4255C291.593 71.5385 290.058 72.2107 288.873 73.328V85.7529H284.199V59.0006H288.896V69.8049C290.542 68.3518 292.644 67.5207 294.839 67.4561C297.587 67.4561 300.546 68.7949 300.546 74.0326V85.7764L295.943 85.7529Z" fill="#7C7B7B"/>
<path d="M168.359 110.133H167.255V118.635H162.698V93.7387H169.11C174.512 93.7387 178.059 96.5337 178.059 102.006C178.035 106.14 175.428 110.133 168.359 110.133ZM168.617 97.5671H167.255V106.328H168.687C169.308 106.412 169.939 106.355 170.534 106.161C171.13 105.967 171.673 105.641 172.125 105.207C172.577 104.774 172.925 104.244 173.143 103.657C173.361 103.07 173.444 102.442 173.385 101.818C173.432 99.3992 171.835 97.5671 168.617 97.5671Z" fill="#7C7B7B"/>
<path d="M185.34 119.011C184.798 119.088 184.247 119.041 183.726 118.874C183.205 118.707 182.729 118.425 182.333 118.047C181.938 117.669 181.633 117.207 181.442 116.695C181.25 116.182 181.178 115.633 181.23 115.089V91.8831H185.763V113.022C185.763 114.337 186.021 114.854 186.984 114.854C187.429 114.85 187.871 114.787 188.299 114.666L188.863 118.025C187.796 118.658 186.581 118.998 185.34 119.011V119.011Z" fill="#7C7B7B"/>
<path d="M203.261 118.635L202.486 117.038C201.086 118.344 199.232 119.051 197.319 119.011C196.55 119.051 195.782 118.93 195.063 118.658C194.343 118.385 193.688 117.966 193.138 117.428C192.589 116.889 192.157 116.243 191.87 115.529C191.583 114.815 191.447 114.049 191.47 113.28C191.47 109.569 194.383 107.573 198.939 107.408H202.11V106.962C202.11 104.778 200.607 103.956 198.611 103.956C197.016 103.976 195.456 104.43 194.101 105.271L192.598 102.312C194.679 100.929 197.148 100.246 199.644 100.362C204.06 100.362 206.69 102.171 206.69 106.845V113.891C206.598 115.464 206.708 117.043 207.019 118.589L203.261 118.635ZM202.11 110.391H199.55C197.201 110.391 196.003 111.307 196.003 112.74C196.003 114.173 197.013 115.23 198.916 115.23C200.084 115.264 201.223 114.862 202.11 114.102V110.391Z" fill="#7C7B7B"/>
<path d="M218.951 119.011C217.748 119.059 216.548 118.85 215.433 118.399C214.317 117.947 213.31 117.263 212.479 116.392C211.648 115.521 211.012 114.483 210.613 113.347C210.214 112.211 210.062 111.003 210.166 109.804C210.121 108.57 210.329 107.34 210.776 106.189C211.223 105.038 211.901 103.991 212.767 103.111C213.634 102.231 214.671 101.538 215.815 101.073C216.959 100.609 218.186 100.383 219.42 100.409C221.203 100.332 222.971 100.763 224.517 101.654V105.341C223.233 104.355 221.649 103.841 220.031 103.885C219.303 103.893 218.584 104.05 217.919 104.347C217.254 104.644 216.658 105.075 216.166 105.612C215.675 106.15 215.3 106.783 215.063 107.471C214.827 108.16 214.735 108.89 214.793 109.616C214.71 110.347 214.783 111.088 215.008 111.789C215.233 112.49 215.604 113.135 216.097 113.681C216.59 114.228 217.194 114.663 217.868 114.958C218.542 115.254 219.272 115.402 220.008 115.394C221.506 115.384 222.971 114.953 224.235 114.149L225.363 117.132C223.452 118.366 221.225 119.019 218.951 119.011V119.011Z" fill="#7C7B7B"/>
<path d="M231.611 110.885C231.634 111.514 231.784 112.133 232.052 112.703C232.319 113.273 232.699 113.784 233.168 114.205C233.637 114.626 234.185 114.948 234.781 115.152C235.377 115.356 236.008 115.439 236.637 115.394C238.285 115.398 239.905 114.969 241.334 114.149L242.415 117.038C240.506 118.342 238.244 119.031 235.932 119.011C229.685 119.011 227.054 114.478 227.054 109.616C227.054 104.754 230.06 100.221 235.157 100.221C240.254 100.221 243.166 103.885 243.166 109.428V110.744L231.611 110.885ZM235.016 103.838C234.524 103.862 234.042 103.984 233.598 104.196C233.154 104.408 232.756 104.706 232.428 105.073C232.1 105.441 231.849 105.869 231.688 106.335C231.528 106.8 231.461 107.293 231.493 107.784H238.539C238.595 107.283 238.546 106.777 238.395 106.296C238.245 105.815 237.996 105.371 237.665 104.991C237.333 104.611 236.927 104.304 236.471 104.09C236.015 103.875 235.52 103.758 235.016 103.744V103.838Z" fill="#7C7B7B"/>
<path d="M269.308 118.635V107.784C269.308 105.788 268.932 104.214 266.701 104.214C265.099 104.317 263.577 104.954 262.379 106.023C262.405 106.233 262.405 106.446 262.379 106.657V118.635H257.893V107.878C257.893 105.858 257.517 104.214 255.333 104.214C253.731 104.317 252.209 104.954 251.011 106.023V118.635H246.478V100.761H250.306L250.753 102.734C252.465 101.3 254.604 100.474 256.836 100.386C257.796 100.32 258.753 100.539 259.589 101.015C260.425 101.492 261.101 102.204 261.533 103.063C263.286 101.454 265.546 100.507 267.922 100.386C268.738 100.307 269.562 100.414 270.331 100.699C271.1 100.984 271.795 101.44 272.362 102.033C272.93 102.625 273.355 103.338 273.607 104.119C273.859 104.899 273.931 105.727 273.817 106.539V118.659L269.308 118.635Z" fill="#7C7B7B"/>
<path d="M281.85 110.885C281.874 111.514 282.024 112.133 282.291 112.703C282.559 113.273 282.938 113.784 283.407 114.205C283.876 114.626 284.425 114.948 285.021 115.152C285.617 115.356 286.248 115.439 286.877 115.394C288.525 115.398 290.145 114.969 291.574 114.149L292.678 117.038C290.761 118.343 288.491 119.031 286.172 119.011C279.948 119.011 277.294 114.478 277.294 109.616C277.294 104.754 280.324 100.221 285.42 100.221C290.517 100.221 293.43 103.885 293.43 109.428V110.744L281.85 110.885ZM285.256 103.838C284.766 103.865 284.287 103.989 283.845 104.202C283.404 104.416 283.009 104.714 282.683 105.081C282.358 105.448 282.108 105.876 281.949 106.34C281.79 106.804 281.725 107.295 281.756 107.784H288.803C288.851 107.277 288.794 106.765 288.636 106.281C288.477 105.797 288.219 105.351 287.879 104.972C287.539 104.592 287.125 104.287 286.661 104.076C286.197 103.865 285.695 103.752 285.186 103.744L285.256 103.838Z" fill="#7C7B7B"/>
<path d="M308.368 118.635V108.043C308.368 106.187 308.039 104.144 305.737 104.144C304.061 104.274 302.471 104.941 301.204 106.046V118.541H296.671V100.761H300.64L301.134 102.687C302.897 101.216 305.108 100.387 307.405 100.339C310.129 100.339 313.018 101.959 313.018 106.751V118.495L308.368 118.635Z" fill="#7C7B7B"/>
<path d="M322.695 119.011C319.219 119.011 317.997 117.25 317.997 114.83V104.167H314.733V100.761H317.927V96.6512L322.46 95.2889V100.761H328.003L326.688 104.167H322.46V113.304C322.46 114.713 322.977 115.347 324.151 115.347C325.206 115.281 326.237 115.001 327.181 114.525L328.379 117.461C326.66 118.483 324.695 119.019 322.695 119.011V119.011Z" fill="#7C7B7B"/>
<path d="M336.834 119.011C334.531 119.108 332.246 118.563 330.234 117.438L331.714 114.126C333.095 115.094 334.726 115.64 336.412 115.699C338.267 115.699 339.465 115.018 339.465 113.82C339.465 110.603 331.244 111.824 331.244 105.741C331.244 102.64 333.593 100.456 337.985 100.456C339.763 100.437 341.529 100.74 343.199 101.349V105.13C341.611 104.406 339.894 104.006 338.15 103.956C336.599 103.956 335.613 104.449 335.613 105.506C335.613 108.348 343.998 107.385 343.998 113.562C344.092 117.438 340.686 119.011 336.834 119.011Z" fill="#7C7B7B"/>
</svg>
